<?xml version="1.0" encoding="utf-8"?>
<!-- Generator: Adobe Illustrator 16.0.0, SVG Export Plug-In . SVG Version: 6.00 Build 0)  -->
<!DOCTYPE svg PUBLIC "-//W3C//DTD SVG 1.1//EN" "http://www.w3.org/Graphics/SVG/1.1/DTD/svg11.dtd">
<svg version="1.1" xmlns="http://www.w3.org/2000/svg" xmlns:xlink="http://www.w3.org/1999/xlink" x="0px" y="0px" width="1920px"
	 height="1080px" viewBox="0 0 1920 1080" enable-background="new 0 0 1920 1080" xml:space="preserve">
<g id="BG">
	<rect x="774" y="195" fill="#630B0A" width="532" height="683"/>
</g>
<g id="GEN">
	<g>
		<path fill="#FFFFFF" d="M877.87,722.614c-2.355-2.18-5.864-3.391-8.922-3.391c-7.519,0-12.081,5.521-12.081,12.496
			c0,5.569,3.358,11.332,12.081,11.332c2.757,0,5.163-0.581,7.919-2.712v-6.005h-8.972v-5.715h15.038v14.287
			c-3.459,3.826-7.82,6.103-13.985,6.103c-13.183,0-18.546-8.379-18.546-17.29c0-9.541,6.165-18.356,18.546-18.356
			c4.711,0,9.423,1.744,13.032,5.183L877.87,722.614z"/>
		<path fill="#FFFFFF" d="M918.967,748.234h-7.87l-10.226-11.333h-6.366v11.333h-6.616v-33.95c5.564,0,11.127,0.048,16.691,0.048
			c8.271,0.049,12.632,5.376,12.632,11.236c0,4.649-2.206,9.348-8.872,10.655l10.626,11.575V748.234z M894.505,720.289v10.849
			h10.075c4.21,0,6.015-2.712,6.015-5.424s-1.854-5.425-6.015-5.425H894.505z"/>
		<path fill="#FFFFFF" d="M946.58,741.842h-18.346l-3.007,6.393h-7.168l15.739-33.902h7.218l15.74,33.902h-7.218L946.58,741.842z
			 M937.407,721.452l-6.516,14.433h13.033L937.407,721.452z"/>
		<path fill="#FFFFFF" d="M982.813,714.284h6.616v33.95h-4.11v0.049l-18.445-22.908v22.859h-6.617v-33.902h5.363l17.193,21.02
			V714.284z"/>
		<path fill="#FFFFFF" d="M1026.366,730.993c0.15,8.572-5.263,17.241-17.544,17.241c-4.311,0-9.474,0-13.784,0v-33.902
			c4.311,0,9.474,0,13.784,0C1020.853,714.332,1026.216,722.614,1026.366,730.993z M1001.604,742.084h7.218
			c7.971,0,11.128-5.618,10.978-11.14c-0.15-5.279-3.358-10.558-10.978-10.558h-7.218V742.084z"/>
		<path fill="#FFFFFF" d="M1056.887,748.234h-26.266c0-11.284,0-22.617,0-33.902h26.266v6.199h-19.699v7.798h18.998v5.957h-18.998
			v7.652h19.699V748.234z"/>
		<path fill="#FFFFFF" d="M1098.283,748.234h-26.266c0-11.284,0-22.617,0-33.902h26.266v6.199h-19.699v7.798h18.998v5.957h-18.998
			v7.652h19.699V748.234z M1093.422,704.017h-7.219l-3.709,6.587v0.29h5.413l5.515-6.635V704.017z"/>
		<path fill="#FFFFFF" d="M1134.068,743.973c-3.609,3.438-8.271,5.037-13.334,5.037c-13.032,0-18.546-8.67-18.596-17.484
			c-0.051-8.863,5.914-17.871,18.596-17.871c4.762,0,9.273,1.743,12.883,5.183l-4.411,4.116c-2.306-2.18-5.414-3.196-8.472-3.196
			c-8.471,0-12.13,6.103-12.08,11.769c0.051,5.618,3.408,11.479,12.08,11.479c3.058,0,6.517-1.211,8.822-3.438L1134.068,743.973z"/>
		<path fill="#FFFFFF" d="M1172.257,731.478c-0.101,8.766-5.664,17.532-17.995,17.532s-18.045-8.573-18.045-17.484
			s5.915-17.871,18.045-17.871C1166.342,713.654,1172.356,722.614,1172.257,731.478z M1142.733,731.622
			c0.15,5.57,3.258,11.527,11.528,11.527s11.379-6.006,11.479-11.575c0.101-5.715-3.208-12.108-11.479-12.108
			S1142.583,725.907,1142.733,731.622z"/>
		<path fill="#FFFFFF" d="M1183.729,714.332v27.994h18.046v5.908h-24.662v-33.902H1183.729z"/>
		<path fill="#FFFFFF" d="M1232.596,748.234h-26.266c0-11.284,0-22.617,0-33.902h26.266v6.199h-19.699v7.798h18.998v5.957h-18.998
			v7.652h19.699V748.234z"/>
		<path fill="#FFFFFF" d="M882.682,789.102c0.15,8.572-5.263,17.241-17.543,17.241c-4.311,0-9.474,0-13.785,0V772.44
			c4.311,0,9.474,0,13.785,0C877.168,772.44,882.531,780.723,882.682,789.102z M857.92,800.192h7.218
			c7.97,0,11.127-5.618,10.977-11.14c-0.15-5.279-3.358-10.558-10.977-10.558h-7.218V800.192z"/>
		<path fill="#FFFFFF" d="M917.813,772.489v19.421c0,10.025-6.366,15.159-15.188,15.159c-8.421,0-15.589-4.94-15.589-15.159v-19.421
			h6.566v19.421c0,6.103,3.609,9.348,9.073,9.348c5.463,0,8.571-3.536,8.571-9.348v-19.421H917.813z"/>
		<path fill="#FFFFFF" d="M957.455,772.393h6.616v33.95h-4.11v0.049l-18.446-22.908v22.859h-6.616V772.44h5.363l17.193,21.02
			V772.393z"/>
		<path fill="#FFFFFF" d="M1000.908,772.489v19.421c0,10.025-6.366,15.159-15.188,15.159c-8.421,0-15.589-4.94-15.589-15.159
			v-19.421h6.566v19.421c0,6.103,3.609,9.348,9.072,9.348c5.464,0,8.572-3.536,8.572-9.348v-19.421H1000.908z"/>
		<path fill="#FFFFFF" d="M1037.944,781.788l-11.429,14.723h-1.303l-11.178-14.771v24.652h-6.617v-33.902h7.619l10.978,14.578
			l10.978-14.578h7.569v33.902h-6.617V781.788z"/>
		<path fill="#FFFFFF" d="M1076.935,806.343h-26.266c0-11.284,0-22.617,0-33.902h26.266v6.199h-19.699v7.798h18.998v5.957h-18.998
			v7.652h19.699V806.343z M1072.073,762.125h-7.219l-3.709,6.587v0.29h5.413l5.515-6.635V762.125z"/>
		<path fill="#FFFFFF" d="M1112.92,806.343h-7.87l-10.226-11.333h-6.365v11.333h-6.617v-33.95c5.564,0,11.128,0.048,16.692,0.048
			c8.271,0.049,12.631,5.376,12.631,11.236c0,4.649-2.205,9.348-8.872,10.655l10.627,11.575V806.343z M1088.459,778.397v10.849
			h10.075c4.21,0,6.015-2.712,6.015-5.424s-1.854-5.425-6.015-5.425H1088.459z"/>
		<path fill="#FFFFFF" d="M1115.671,806.343V772.44h6.566v33.902H1115.671z"/>
		<path fill="#FFFFFF" d="M1162.836,788.956c0.051,3.874-1.002,7.895-3.258,11.042l4.16,3.972l-4.661,4.504l-4.261-4.068
			c-2.657,1.646-6.016,2.519-9.976,2.519c-12.48,0-17.994-8.766-18.045-17.58c-0.05-8.863,5.715-17.727,18.045-17.727
			C1157.172,771.617,1162.686,780.238,1162.836,788.956z M1133.313,789.488c0.101,5.57,3.91,11.527,11.528,11.527
			c7.92,0,11.729-6.441,11.479-12.254c-0.251-5.473-3.208-11.381-11.479-11.381C1136.57,777.381,1133.212,783.773,1133.313,789.488z
			"/>
		<path fill="#FFFFFF" d="M1198.42,772.489v19.421c0,10.025-6.366,15.159-15.188,15.159c-8.421,0-15.589-4.94-15.589-15.159v-19.421
			h6.566v19.421c0,6.103,3.609,9.348,9.072,9.348c5.464,0,8.572-3.536,8.572-9.348v-19.421H1198.42z"/>
		<path fill="#FFFFFF" d="M1231.045,806.343h-26.266c0-11.284,0-22.617,0-33.902h26.266v6.199h-19.699v7.798h18.998v5.957h-18.998
			v7.652h19.699V806.343z"/>
	</g>
</g>
<g id="triangles">
	<g>
		<polygon fill="#F0E2E1" points="848,279.65 848,376 944.485,376 		"/>
		<polygon fill="#8E4743" points="944,376.782 944,375.489 944.485,376 848,376 848,472 850.085,472 		"/>
		<polygon fill="#FFFFFF" points="943.838,375.489 943.838,376.782 944.485,376.136 		"/>
		<polygon fill="#9E5D5D" points="944,567.021 944,566.614 849.363,472.071 850.085,472 848,472 848,568 944.485,568 		"/>
		<polygon fill="#FFFFFF" points="944.557,566.614 944.557,567.021 944.761,566.818 		"/>
		<polygon fill="#DCC6C2" points="848,568 848,662.859 944.485,568 		"/>
		<polygon fill="#CDABA7" points="944,376 944,280 848,280 848,279.65 944.485,376 		"/>
		<polygon fill="#9E5D5A" points="1040,280.944 1040,280 944,280 944,376 945.923,376 		"/>
		<polygon fill="#EEE2E1" points="1134.868,376 1136.162,376 1136,375.345 1136,280 1040,280 1040,280.944 		"/>
		<polygon fill="#8E4743" points="1232,280 1136,280 1136,375.345 		"/>
		<polygon fill="#FFFFFF" points="944.485,375.417 944.557,375.489 944.557,375.417 		"/>
		<polygon fill="#FFFFFF" points="945.923,376 944,376 944,375.489 944.926,376.428 		"/>
		<polygon fill="#FFFFFF" points="1136.162,376.136 1134.868,376.136 1135.515,376.782 		"/>
		<polygon fill="#FFFFFF" points="944.485,567.093 944.557,567.093 944.557,567.021 		"/>
		<polygon fill="#FFFFFF" points="944.761,566.818 944.557,567.021 944.557,567.093 945.037,567.093 		"/>
		<polygon fill="#FFFFFF" points="1135.755,567.093 1136.162,567.093 1135.958,566.89 		"/>
		<polygon fill="#BD8F8A" points="944,663 944,568 944.485,568 848,662.859 848,663 		"/>
		<polygon fill="#9E5D5C" points="945.037,568 944,568 944,663 1040,663 1040,662.452 		"/>
		<polygon fill="#CEAAA7" points="1136.162,568 1135.755,568 1040,662.452 1040,663 1136,663 1136,567.165 		"/>
		<polygon fill="#EDE3E1" points="1136,663 1232,663 1136,567.165 		"/>
		<polygon fill="#FFFFFF" points="1136.233,375.345 1136.162,375.417 1136.233,375.417 		"/>
		<polygon fill="#F0E1E1" points="1136,376 1231,376 1231,280 1232,280 1136,375.345 		"/>
		<polygon fill="#FFFFFF" points="1135.755,376.782 1135.755,375.896 1136.162,375.896 1135.275,376.303 		"/>
		<polygon fill="#8E4743" points="1136,376.782 1230.706,472 1231,472 1231,376 1136,376 		"/>
		<polygon fill="#FFFFFF" points="1135.958,566.89 1136.162,567.093 1136.233,567.093 1136.233,566.614 		"/>
		<polygon fill="#CEAAA7" points="1231.033,472.071 1136,566.614 1136,568 1231,568 1231,472 1230.706,472 		"/>
		<polygon fill="#FFFFFF" points="1136.233,567.165 1136.233,567.093 1136.162,567.093 		"/>
		<polygon fill="#AC7671" points="1231,568 1136,568 1136,567.165 1232,663 1231,663 		"/>
		<polygon fill="#DDC5C4" points="944,376.782 850.085,472 944,472 		"/>
		<polygon fill="#E1D5D0" points="1040.323,472 944.926,376.508 944,376.782 944,472 		"/>
		<polygon fill="#F0E3E2" points="850.085,472 849.363,472.071 944,566.614 944,472 		"/>
		<polygon fill="#B78B86" points="1040.323,472 944,472 944,566.614 944.482,567.19 		"/>
		<polygon fill="#FFFFFF" points="1040,280.944 945.923,376 1040,376 		"/>
		<polygon fill="#AC7673" points="1134.868,376 1040,280.944 1040,376 		"/>
		<polygon fill="#DFC1BD" points="1040,376 945.923,376 945.204,376.428 1040.125,471.4 1040,471.183 		"/>
		<polygon fill="#9E5D5A" points="1040,471.183 1135.316,376.355 1134.868,376 1040,376 		"/>
		<polygon fill="#DEC5C4" points="1040,471.327 1040.125,471.255 944.662,567.271 945.037,568 1040,568 		"/>
		<polygon fill="#985D5A" points="1040,471.327 1040,568 1135.755,568 1135.76,567.344 		"/>
		<polygon fill="#BC908C" points="945.037,568 1040,662.452 1040,568 		"/>
		<polygon fill="#EEE2E1" points="1040,662.452 1135.755,568 1040,568 		"/>
		<polygon fill="#FFFFFF" points="1040.396,471.183 1040.323,471.255 1040.396,471.255 		"/>
		<polygon fill="#C8A3A0" points="1040,471.183 1040,472 1136,472 1136,376.782 1135.2,376.063 		"/>
		<polygon fill="#EAE5E1" points="1230.706,472 1136,376.782 1136,472 		"/>
		<polygon fill="#FFFFFF" points="1040.396,471.255 1040.323,471.255 1040.396,471.327 		"/>
		<polygon fill="#E1D5D0" points="1040,472 1040,471.327 1135.645,566.89 1136,566.614 1136,472 		"/>
		<polygon fill="#AD7676" points="1136,566.614 1231.033,472.071 1230.706,472 1136,472 		"/>
	</g>
</g>
<g id="N">
	<polygon fill="#630B0A" points="1100,376 1100,518.034 986.959,376 980,376 944.959,376 944,376 944,568 980,568 980,419.664 
		1099.041,568 1100,567.842 1100,568 1136,568 1136,376 	"/>
</g>
</svg>
